<svg width="164" height="164" xmlns="http://www.w3.org/2000/svg"><g fill="none" fill-rule="evenodd"><path d="M117.728 0c.111 0 .22.013.323.039.364-.026.734-.039 1.11-.039 5.044 0 9.133 2.388 9.133 5.333 0 2.545-3.052 4.673-7.134 5.206v45.013l38.326 48.31c6.788 8.555 5.809 21.378-2.186 28.642-3.432 3.118-7.788 4.83-12.29 4.83H55.111c-10.488 0-18.99-9.099-18.99-20.321 0-4.818 1.6-9.479 4.514-13.152L78.96 55.552V10.478c-3.872-.618-6.718-2.687-6.718-5.145C72.243 2.388 76.332 0 81.376 0c.376 0 .746.013 1.11.039.103-.026.211-.039.322-.039h34.92z" fill="#989898"/><path d="M106.518 8.889c.111 0 .22.013.323.039.364-.026.734-.04 1.11-.04 5.044 0 9.133 2.389 9.133 5.334 0 2.545-3.052 4.673-7.134 5.205v45.014l38.326 48.31c6.788 8.555 5.809 21.378-2.186 28.642-3.432 3.118-7.788 4.83-12.29 4.83H43.9c-10.488 0-18.99-9.099-18.99-20.321 0-4.818 1.6-9.48 4.514-13.152L67.75 64.441V19.367c-3.871-.618-6.717-2.688-6.717-5.145 0-2.945 4.089-5.333 9.133-5.333.375 0 .746.013 1.11.039.103-.026.211-.04.322-.04h34.92z" fill="#7E7E7E"/><path d="M94.062 17.778c.111 0 .22.013.323.039.364-.026.734-.04 1.11-.04 5.044 0 9.133 2.389 9.133 5.334 0 2.545-3.052 4.673-7.134 5.205V73.33l38.327 48.31c6.787 8.556 5.808 21.38-2.187 28.643-3.432 3.117-7.788 4.83-12.29 4.83H31.445c-10.487 0-18.99-9.099-18.99-20.322 0-4.817 1.6-9.478 4.514-13.15l38.326-48.31V28.256c-3.872-.619-6.718-2.688-6.718-5.145 0-2.945 4.09-5.333 9.133-5.333.376 0 .746.013 1.11.039.104-.026.212-.04.323-.04h34.92z" fill="#5E5E5E"/><path d="M81.607 26.667c.11 0 .219.013.323.039.363-.026.734-.04 1.11-.04 5.043 0 9.132 2.388 9.132 5.334 0 2.545-3.051 4.673-7.134 5.205v45.013l38.327 48.31c6.787 8.556 5.808 21.38-2.187 28.642-3.432 3.118-7.787 4.83-12.29 4.83H18.99C8.502 164 0 154.902 0 143.68c0-4.818 1.6-9.48 4.513-13.152l38.326-48.31V37.146c-3.872-.619-6.717-2.688-6.717-5.145 0-2.946 4.088-5.333 9.132-5.333.376 0 .746.013 1.11.039.104-.026.212-.04.323-.04h34.92z" fill="#444"/><path d="M58.77 63.181c.42.068.877.175 1.352.28 2.363.528 5.074 1.558 7.319 2.59a32.82 32.82 0 012.801 1.436h0v24.45l26.417 36.84c1.09 1.394 2.219 3.34 2.703 5.325.24.983.385 2.011-.053 2.885-.324.645-.996 1.094-1.917 1.456-1.469.578-3.444.861-6.016.861h0-54.874c-2.763 0-4.86-.284-6.403-.859-.913-.34-1.594-.733-1.898-1.345-.406-.815-.194-1.77.054-2.668.604-2.19 1.973-4.306 3-5.626h0L58.769 91.98z" stroke="#36FFFC" stroke-width="8" fill="#C973FF"/></g></svg>